<?xml version="1.0" encoding="utf-8" standalone="no"?>
<!DOCTYPE svg PUBLIC "-//W3C//DTD SVG 1.1//EN"
  "http://www.w3.org/Graphics/SVG/1.1/DTD/svg11.dtd">
<!-- Created with matplotlib (https://matplotlib.org/) -->
<svg height="1069.844923pt" version="1.1" viewBox="0 0 2872.658954 1069.844923" width="2872.658954pt" xmlns="http://www.w3.org/2000/svg" xmlns:xlink="http://www.w3.org/1999/xlink">
 <defs>
  <style type="text/css">
*{stroke-linecap:butt;stroke-linejoin:round;}
  </style>
 </defs>
 <g id="figure_1">
  <g id="patch_1">
   <path d="M 0 1069.844923 
L 2872.658954 1069.844923 
L 2872.658954 0 
L 0 0 
z
" style="fill:#ffffff;"/>
  </g>
  <g id="axes_1">
   <g id="line2d_1">
    <path clip-path="url(#p02ba724421)" d="M 455.050954 121.302154 
L 2851.196185 121.302154 
" style="fill:none;stroke:#000000;stroke-linecap:square;stroke-width:2;"/>
   </g>
   <g id="line2d_2">
    <path clip-path="url(#p02ba724421)" d="M 455.050954 263.929846 
L 2851.196185 263.929846 
" style="fill:none;stroke:#000000;stroke-linecap:square;stroke-width:2;"/>
   </g>
   <g id="line2d_3">
    <path clip-path="url(#p02ba724421)" d="M 455.050954 406.557538 
L 2851.196185 406.557538 
" style="fill:none;stroke:#000000;stroke-linecap:square;stroke-width:2;"/>
   </g>
   <g id="line2d_4">
    <path clip-path="url(#p02ba724421)" d="M 455.050954 549.185231 
L 2851.196185 549.185231 
" style="fill:none;stroke:#000000;stroke-linecap:square;stroke-width:2;"/>
   </g>
   <g id="line2d_5">
    <path clip-path="url(#p02ba724421)" d="M 455.050954 691.812923 
L 2851.196185 691.812923 
" style="fill:none;stroke:#000000;stroke-linecap:square;stroke-width:2;"/>
   </g>
   <g id="line2d_6">
    <path clip-path="url(#p02ba724421)" d="M 455.050954 834.440615 
L 2851.196185 834.440615 
" style="fill:none;stroke:#000000;stroke-linecap:square;stroke-width:2;"/>
   </g>
   <g id="line2d_7">
    <path clip-path="url(#p02ba724421)" d="M 455.050954 977.068308 
L 2851.196185 977.068308 
" style="fill:none;stroke:#000000;stroke-linecap:square;stroke-width:2;"/>
   </g>
   <g id="line2d_8">
    <path clip-path="url(#p02ba724421)" d="M 569.153108 834.440615 
L 569.153108 121.302154 
" style="fill:none;stroke:#bb8bff;stroke-linecap:square;stroke-width:2;"/>
   </g>
   <g id="line2d_9">
    <path clip-path="url(#p02ba724421)" d="M 1424.919262 977.068308 
L 1424.919262 406.557538 
" style="fill:none;stroke:#6fa4ff;stroke-linecap:square;stroke-width:2;"/>
   </g>
   <g id="line2d_10">
    <path clip-path="url(#p02ba724421)" d="M 1710.174646 977.068308 
L 1710.174646 406.557538 
" style="fill:none;stroke:#bb8bff;stroke-linecap:square;stroke-width:2;"/>
   </g>
   <g id="line2d_11">
    <path clip-path="url(#p02ba724421)" d="M 1852.802338 834.440615 
L 1852.802338 121.302154 
" style="fill:none;stroke:#bb8bff;stroke-linecap:square;stroke-width:2;"/>
   </g>
   <g id="line2d_12">
    <path clip-path="url(#p02ba724421)" d="M 2280.685415 977.068308 
L 2280.685415 406.557538 
" style="fill:none;stroke:#6fa4ff;stroke-linecap:square;stroke-width:2;"/>
   </g>
   <g id="line2d_13">
    <path clip-path="url(#p02ba724421)" d="M 2708.568492 834.440615 
L 2708.568492 121.302154 
" style="fill:none;stroke:#bb8bff;stroke-linecap:square;stroke-width:2;"/>
   </g>
   <g id="patch_2">
    <path clip-path="url(#p02ba724421)" d="M 569.153108 135.208354 
C 572.841075 135.208354 576.378489 133.743109 578.986276 131.135322 
C 581.594063 128.527535 583.059308 124.990121 583.059308 121.302154 
C 583.059308 117.614186 581.594063 114.076772 578.986276 111.468986 
C 576.378489 108.861199 572.841075 107.395954 569.153108 107.395954 
C 565.46514 107.395954 561.927726 108.861199 559.319939 111.468986 
C 556.712153 114.076772 555.246908 117.614186 555.246908 121.302154 
C 555.246908 124.990121 556.712153 128.527535 559.319939 131.135322 
C 561.927726 133.743109 565.46514 135.208354 569.153108 135.208354 
z
" style="fill:#bb8bff;stroke:#bb8bff;stroke-linejoin:miter;stroke-width:1.5;"/>
   </g>
   <g id="patch_3">
    <path clip-path="url(#p02ba724421)" d="M 569.153108 277.836046 
C 572.841075 277.836046 576.378489 276.370801 578.986276 273.763014 
C 581.594063 271.155228 583.059308 267.617814 583.059308 263.929846 
C 583.059308 260.241879 581.594063 256.704465 578.986276 254.096678 
C 576.378489 251.488891 572.841075 250.023646 569.153108 250.023646 
C 565.46514 250.023646 561.927726 251.488891 559.319939 254.096678 
C 556.712153 256.704465 555.246908 260.241879 555.246908 263.929846 
C 555.246908 267.617814 556.712153 271.155228 559.319939 273.763014 
C 561.927726 276.370801 565.46514 277.836046 569.153108 277.836046 
z
" style="fill:#bb8bff;stroke:#bb8bff;stroke-linejoin:miter;stroke-width:1.5;"/>
   </g>
   <g id="patch_4">
    <path clip-path="url(#p02ba724421)" d="M 453.268108 880.794615 
L 685.038108 880.794615 
L 685.038108 360.203538 
L 453.268108 360.203538 
z
" style="fill:#bb8bff;stroke:#bb8bff;stroke-linejoin:miter;stroke-width:1.5;"/>
   </g>
   <g id="patch_5">
    <path clip-path="url(#p02ba724421)" d="M 693.952338 880.794615 
L 1157.492338 880.794615 
L 1157.492338 360.203538 
L 693.952338 360.203538 
z
" style="fill:#bb8bff;stroke:#bb8bff;stroke-linejoin:miter;stroke-width:1.5;"/>
   </g>
   <g id="patch_6">
    <path clip-path="url(#p02ba724421)" d="M 1235.937569 880.794615 
L 1328.645569 880.794615 
L 1328.645569 360.203538 
L 1235.937569 360.203538 
z
" style="fill:#bb8bff;stroke:#bb8bff;stroke-linejoin:miter;stroke-width:1.5;"/>
   </g>
   <g id="patch_7">
    <path clip-path="url(#p02ba724421)" d="M 1424.919262 420.463738 
C 1428.607229 420.463738 1432.144643 418.998494 1434.75243 416.390707 
C 1437.360217 413.78292 1438.825462 410.245506 1438.825462 406.557538 
C 1438.825462 402.869571 1437.360217 399.332157 1434.75243 396.72437 
C 1432.144643 394.116583 1428.607229 392.651338 1424.919262 392.651338 
C 1421.231294 392.651338 1417.69388 394.116583 1415.086093 396.72437 
C 1412.478306 399.332157 1411.013062 402.869571 1411.013062 406.557538 
C 1411.013062 410.245506 1412.478306 413.78292 1415.086093 416.390707 
C 1417.69388 418.998494 1421.231294 420.463738 1424.919262 420.463738 
z
" style="fill:#6fa4ff;stroke:#6fa4ff;stroke-linejoin:miter;stroke-width:1.5;"/>
   </g>
   <g id="patch_8">
    <path clip-path="url(#p02ba724421)" d="M 1424.919262 1009.516108 
C 1433.524519 1009.516108 1441.778485 1006.097203 1447.863321 1000.012367 
C 1453.948157 993.927531 1457.367062 985.673565 1457.367062 977.068308 
C 1457.367062 968.463051 1453.948157 960.209084 1447.863321 954.124248 
C 1441.778485 948.039413 1433.524519 944.620508 1424.919262 944.620508 
C 1416.314004 944.620508 1408.060038 948.039413 1401.975202 954.124248 
C 1395.890366 960.209084 1392.471462 968.463051 1392.471462 977.068308 
C 1392.471462 985.673565 1395.890366 993.927531 1401.975202 1000.012367 
C 1408.060038 1006.097203 1416.314004 1009.516108 1424.919262 1009.516108 
z
" style="fill:#6fa4ff;stroke:#6fa4ff;stroke-linejoin:miter;stroke-width:2;"/>
   </g>
   <g id="patch_9">
    <path clip-path="url(#p02ba724421)" d="M 1521.192954 880.794615 
L 1613.900954 880.794615 
L 1613.900954 360.203538 
L 1521.192954 360.203538 
z
" style="fill:#bb8bff;stroke:#bb8bff;stroke-linejoin:miter;stroke-width:1.5;"/>
   </g>
   <g id="patch_10">
    <path clip-path="url(#p02ba724421)" d="M 1710.174646 990.974508 
C 1713.862614 990.974508 1717.400028 989.509263 1720.007814 986.901476 
C 1722.615601 984.293689 1724.080846 980.756275 1724.080846 977.068308 
C 1724.080846 973.38034 1722.615601 969.842926 1720.007814 967.235139 
C 1717.400028 964.627353 1713.862614 963.162108 1710.174646 963.162108 
C 1706.486679 963.162108 1702.949265 964.627353 1700.341478 967.235139 
C 1697.733691 969.842926 1696.268446 973.38034 1696.268446 977.068308 
C 1696.268446 980.756275 1697.733691 984.293689 1700.341478 986.901476 
C 1702.949265 989.509263 1706.486679 990.974508 1710.174646 990.974508 
z
" style="fill:#bb8bff;stroke:#bb8bff;stroke-linejoin:miter;stroke-width:1.5;"/>
   </g>
   <g id="patch_11">
    <path clip-path="url(#p02ba724421)" d="M 1594.289646 880.794615 
L 1826.059646 880.794615 
L 1826.059646 360.203538 
L 1594.289646 360.203538 
z
" style="fill:#bb8bff;stroke:#bb8bff;stroke-linejoin:miter;stroke-width:1.5;"/>
   </g>
   <g id="patch_12">
    <path clip-path="url(#p02ba724421)" d="M 1852.802338 135.208354 
C 1856.490306 135.208354 1860.02772 133.743109 1862.635507 131.135322 
C 1865.243294 128.527535 1866.708538 124.990121 1866.708538 121.302154 
C 1866.708538 117.614186 1865.243294 114.076772 1862.635507 111.468986 
C 1860.02772 108.861199 1856.490306 107.395954 1852.802338 107.395954 
C 1849.114371 107.395954 1845.576957 108.861199 1842.96917 111.468986 
C 1840.361383 114.076772 1838.896138 117.614186 1838.896138 121.302154 
C 1838.896138 124.990121 1840.361383 128.527535 1842.96917 131.135322 
C 1845.576957 133.743109 1849.114371 135.208354 1852.802338 135.208354 
z
" style="fill:#bb8bff;stroke:#bb8bff;stroke-linejoin:miter;stroke-width:1.5;"/>
   </g>
   <g id="patch_13">
    <path clip-path="url(#p02ba724421)" d="M 1852.802338 277.836046 
C 1856.490306 277.836046 1860.02772 276.370801 1862.635507 273.763014 
C 1865.243294 271.155228 1866.708538 267.617814 1866.708538 263.929846 
C 1866.708538 260.241879 1865.243294 256.704465 1862.635507 254.096678 
C 1860.02772 251.488891 1856.490306 250.023646 1852.802338 250.023646 
C 1849.114371 250.023646 1845.576957 251.488891 1842.96917 254.096678 
C 1840.361383 256.704465 1838.896138 260.241879 1838.896138 263.929846 
C 1838.896138 267.617814 1840.361383 271.155228 1842.96917 273.763014 
C 1845.576957 276.370801 1849.114371 277.836046 1852.802338 277.836046 
z
" style="fill:#bb8bff;stroke:#bb8bff;stroke-linejoin:miter;stroke-width:1.5;"/>
   </g>
   <g id="patch_14">
    <path clip-path="url(#p02ba724421)" d="M 1621.032338 880.794615 
L 2084.572338 880.794615 
L 2084.572338 360.203538 
L 1621.032338 360.203538 
z
" style="fill:#bb8bff;stroke:#bb8bff;stroke-linejoin:miter;stroke-width:1.5;"/>
   </g>
   <g id="patch_15">
    <path clip-path="url(#p02ba724421)" d="M 1949.076031 880.794615 
L 2041.784031 880.794615 
L 2041.784031 360.203538 
L 1949.076031 360.203538 
z
" style="fill:#bb8bff;stroke:#bb8bff;stroke-linejoin:miter;stroke-width:1.5;"/>
   </g>
   <g id="patch_16">
    <path clip-path="url(#p02ba724421)" d="M 2091.703723 452.911538 
L 2184.411723 452.911538 
L 2184.411723 360.203538 
L 2091.703723 360.203538 
z
" style="fill:#05bab6;"/>
   </g>
   <g id="patch_17">
    <path clip-path="url(#p02ba724421)" d="M 2280.685415 420.463738 
C 2284.373383 420.463738 2287.910797 418.998494 2290.518584 416.390707 
C 2293.12637 413.78292 2294.591615 410.245506 2294.591615 406.557538 
C 2294.591615 402.869571 2293.12637 399.332157 2290.518584 396.72437 
C 2287.910797 394.116583 2284.373383 392.651338 2280.685415 392.651338 
C 2276.997448 392.651338 2273.460034 394.116583 2270.852247 396.72437 
C 2268.24446 399.332157 2266.779215 402.869571 2266.779215 406.557538 
C 2266.779215 410.245506 2268.24446 413.78292 2270.852247 416.390707 
C 2273.460034 418.998494 2276.997448 420.463738 2280.685415 420.463738 
z
" style="fill:#6fa4ff;stroke:#6fa4ff;stroke-linejoin:miter;stroke-width:1.5;"/>
   </g>
   <g id="patch_18">
    <path clip-path="url(#p02ba724421)" d="M 2280.685415 1009.516108 
C 2289.290673 1009.516108 2297.544639 1006.097203 2303.629475 1000.012367 
C 2309.71431 993.927531 2313.133215 985.673565 2313.133215 977.068308 
C 2313.133215 968.463051 2309.71431 960.209084 2303.629475 954.124248 
C 2297.544639 948.039413 2289.290673 944.620508 2280.685415 944.620508 
C 2272.080158 944.620508 2263.826192 948.039413 2257.741356 954.124248 
C 2251.65652 960.209084 2248.237615 968.463051 2248.237615 977.068308 
C 2248.237615 985.673565 2251.65652 993.927531 2257.741356 1000.012367 
C 2263.826192 1006.097203 2272.080158 1009.516108 2280.685415 1009.516108 
z
" style="fill:#6fa4ff;stroke:#6fa4ff;stroke-linejoin:miter;stroke-width:2;"/>
   </g>
   <g id="patch_19">
    <path clip-path="url(#p02ba724421)" d="M 2376.959108 452.911538 
L 2469.667108 452.911538 
L 2469.667108 360.203538 
L 2376.959108 360.203538 
z
" style="fill:#05bab6;"/>
   </g>
   <g id="patch_20">
    <path clip-path="url(#p02ba724421)" d="M 2519.5868 880.794615 
L 2612.2948 880.794615 
L 2612.2948 360.203538 
L 2519.5868 360.203538 
z
" style="fill:#bb8bff;stroke:#bb8bff;stroke-linejoin:miter;stroke-width:1.5;"/>
   </g>
   <g id="patch_21">
    <path clip-path="url(#p02ba724421)" d="M 2708.568492 135.208354 
C 2712.25646 135.208354 2715.793874 133.743109 2718.401661 131.135322 
C 2721.009447 128.527535 2722.474692 124.990121 2722.474692 121.302154 
C 2722.474692 117.614186 2721.009447 114.076772 2718.401661 111.468986 
C 2715.793874 108.861199 2712.25646 107.395954 2708.568492 107.395954 
C 2704.880525 107.395954 2701.343111 108.861199 2698.735324 111.468986 
C 2696.127537 114.076772 2694.662292 117.614186 2694.662292 121.302154 
C 2694.662292 124.990121 2696.127537 128.527535 2698.735324 131.135322 
C 2701.343111 133.743109 2704.880525 135.208354 2708.568492 135.208354 
z
" style="fill:#bb8bff;stroke:#bb8bff;stroke-linejoin:miter;stroke-width:1.5;"/>
   </g>
   <g id="patch_22">
    <path clip-path="url(#p02ba724421)" d="M 2708.568492 277.836046 
C 2712.25646 277.836046 2715.793874 276.370801 2718.401661 273.763014 
C 2721.009447 271.155228 2722.474692 267.617814 2722.474692 263.929846 
C 2722.474692 260.241879 2721.009447 256.704465 2718.401661 254.096678 
C 2715.793874 251.488891 2712.25646 250.023646 2708.568492 250.023646 
C 2704.880525 250.023646 2701.343111 251.488891 2698.735324 254.096678 
C 2696.127537 256.704465 2694.662292 260.241879 2694.662292 263.929846 
C 2694.662292 267.617814 2696.127537 271.155228 2698.735324 273.763014 
C 2701.343111 276.370801 2704.880525 277.836046 2708.568492 277.836046 
z
" style="fill:#bb8bff;stroke:#bb8bff;stroke-linejoin:miter;stroke-width:1.5;"/>
   </g>
   <g id="patch_23">
    <path clip-path="url(#p02ba724421)" d="M 2592.683492 880.794615 
L 2824.453492 880.794615 
L 2824.453492 360.203538 
L 2592.683492 360.203538 
z
" style="fill:#bb8bff;stroke:#bb8bff;stroke-linejoin:miter;stroke-width:1.5;"/>
   </g>
   <g id="line2d_14">
    <path clip-path="url(#p02ba724421)" d="M 1424.919262 995.609908 
L 1424.919262 958.526708 
" style="fill:none;stroke:#ffffff;stroke-linecap:square;stroke-width:2;"/>
   </g>
   <g id="line2d_15">
    <path clip-path="url(#p02ba724421)" d="M 1406.377662 977.068308 
L 1443.460862 977.068308 
" style="fill:none;stroke:#ffffff;stroke-linecap:square;stroke-width:2;"/>
   </g>
   <g id="line2d_16">
    <path clip-path="url(#p02ba724421)" d="M 2280.685415 995.609908 
L 2280.685415 958.526708 
" style="fill:none;stroke:#ffffff;stroke-linecap:square;stroke-width:2;"/>
   </g>
   <g id="line2d_17">
    <path clip-path="url(#p02ba724421)" d="M 2262.143815 977.068308 
L 2299.227015 977.068308 
" style="fill:none;stroke:#ffffff;stroke-linecap:square;stroke-width:2;"/>
   </g>
   <g id="text_1">
    <g clip-path="url(#p02ba724421)">
     <!-- 0 -->
     <defs>
      <path d="M 31.78125 66.40625 
Q 24.171875 66.40625 20.328125 58.90625 
Q 16.5 51.421875 16.5 36.375 
Q 16.5 21.390625 20.328125 13.890625 
Q 24.171875 6.390625 31.78125 6.390625 
Q 39.453125 6.390625 43.28125 13.890625 
Q 47.125 21.390625 47.125 36.375 
Q 47.125 51.421875 43.28125 58.90625 
Q 39.453125 66.40625 31.78125 66.40625 
z
M 31.78125 74.21875 
Q 44.046875 74.21875 50.515625 64.515625 
Q 56.984375 54.828125 56.984375 36.375 
Q 56.984375 17.96875 50.515625 8.265625 
Q 44.046875 -1.421875 31.78125 -1.421875 
Q 19.53125 -1.421875 13.0625 8.265625 
Q 6.59375 17.96875 6.59375 36.375 
Q 6.59375 54.828125 13.0625 64.515625 
Q 19.53125 74.21875 31.78125 74.21875 
z
" id="DejaVuSans-48"/>
     </defs>
     <g transform="translate(464.856608 412.076288)scale(0.2 -0.2)">
      <use xlink:href="#DejaVuSans-48"/>
     </g>
    </g>
   </g>
   <g id="text_2">
    <g clip-path="url(#p02ba724421)">
     <!-- 1 -->
     <defs>
      <path d="M 12.40625 8.296875 
L 28.515625 8.296875 
L 28.515625 63.921875 
L 10.984375 60.40625 
L 10.984375 69.390625 
L 28.421875 72.90625 
L 38.28125 72.90625 
L 38.28125 8.296875 
L 54.390625 8.296875 
L 54.390625 0 
L 12.40625 0 
z
" id="DejaVuSans-49"/>
     </defs>
     <g transform="translate(464.856608 554.703981)scale(0.2 -0.2)">
      <use xlink:href="#DejaVuSans-49"/>
     </g>
    </g>
   </g>
   <g id="text_3">
    <g clip-path="url(#p02ba724421)">
     <!-- 2 -->
     <defs>
      <path d="M 19.1875 8.296875 
L 53.609375 8.296875 
L 53.609375 0 
L 7.328125 0 
L 7.328125 8.296875 
Q 12.9375 14.109375 22.625 23.890625 
Q 32.328125 33.6875 34.8125 36.53125 
Q 39.546875 41.84375 41.421875 45.53125 
Q 43.3125 49.21875 43.3125 52.78125 
Q 43.3125 58.59375 39.234375 62.25 
Q 35.15625 65.921875 28.609375 65.921875 
Q 23.96875 65.921875 18.8125 64.3125 
Q 13.671875 62.703125 7.8125 59.421875 
L 7.8125 69.390625 
Q 13.765625 71.78125 18.9375 73 
Q 24.125 74.21875 28.421875 74.21875 
Q 39.75 74.21875 46.484375 68.546875 
Q 53.21875 62.890625 53.21875 53.421875 
Q 53.21875 48.921875 51.53125 44.890625 
Q 49.859375 40.875 45.40625 35.40625 
Q 44.1875 33.984375 37.640625 27.21875 
Q 31.109375 20.453125 19.1875 8.296875 
z
" id="DejaVuSans-50"/>
     </defs>
     <g transform="translate(464.856608 697.331673)scale(0.2 -0.2)">
      <use xlink:href="#DejaVuSans-50"/>
     </g>
    </g>
   </g>
   <g id="text_4">
    <g clip-path="url(#p02ba724421)">
     <!-- 3 -->
     <defs>
      <path d="M 40.578125 39.3125 
Q 47.65625 37.796875 51.625 33 
Q 55.609375 28.21875 55.609375 21.1875 
Q 55.609375 10.40625 48.1875 4.484375 
Q 40.765625 -1.421875 27.09375 -1.421875 
Q 22.515625 -1.421875 17.65625 -0.515625 
Q 12.796875 0.390625 7.625 2.203125 
L 7.625 11.71875 
Q 11.71875 9.328125 16.59375 8.109375 
Q 21.484375 6.890625 26.8125 6.890625 
Q 36.078125 6.890625 40.9375 10.546875 
Q 45.796875 14.203125 45.796875 21.1875 
Q 45.796875 27.640625 41.28125 31.265625 
Q 36.765625 34.90625 28.71875 34.90625 
L 20.21875 34.90625 
L 20.21875 43.015625 
L 29.109375 43.015625 
Q 36.375 43.015625 40.234375 45.921875 
Q 44.09375 48.828125 44.09375 54.296875 
Q 44.09375 59.90625 40.109375 62.90625 
Q 36.140625 65.921875 28.71875 65.921875 
Q 24.65625 65.921875 20.015625 65.03125 
Q 15.375 64.15625 9.8125 62.3125 
L 9.8125 71.09375 
Q 15.4375 72.65625 20.34375 73.4375 
Q 25.25 74.21875 29.59375 74.21875 
Q 40.828125 74.21875 47.359375 69.109375 
Q 53.90625 64.015625 53.90625 55.328125 
Q 53.90625 49.265625 50.4375 45.09375 
Q 46.96875 40.921875 40.578125 39.3125 
z
" id="DejaVuSans-51"/>
     </defs>
     <g transform="translate(464.856608 839.959365)scale(0.2 -0.2)">
      <use xlink:href="#DejaVuSans-51"/>
     </g>
    </g>
   </g>
   <g id="text_5">
    <g clip-path="url(#p02ba724421)">
     <!-- phiADD3 -->
     <defs>
      <path d="M 18.109375 8.203125 
L 18.109375 -20.796875 
L 9.078125 -20.796875 
L 9.078125 54.6875 
L 18.109375 54.6875 
L 18.109375 46.390625 
Q 20.953125 51.265625 25.265625 53.625 
Q 29.59375 56 35.59375 56 
Q 45.5625 56 51.78125 48.09375 
Q 58.015625 40.1875 58.015625 27.296875 
Q 58.015625 14.40625 51.78125 6.484375 
Q 45.5625 -1.421875 35.59375 -1.421875 
Q 29.59375 -1.421875 25.265625 0.953125 
Q 20.953125 3.328125 18.109375 8.203125 
z
M 48.6875 27.296875 
Q 48.6875 37.203125 44.609375 42.84375 
Q 40.53125 48.484375 33.40625 48.484375 
Q 26.265625 48.484375 22.1875 42.84375 
Q 18.109375 37.203125 18.109375 27.296875 
Q 18.109375 17.390625 22.1875 11.75 
Q 26.265625 6.109375 33.40625 6.109375 
Q 40.53125 6.109375 44.609375 11.75 
Q 48.6875 17.390625 48.6875 27.296875 
z
" id="DejaVuSans-112"/>
      <path d="M 54.890625 33.015625 
L 54.890625 0 
L 45.90625 0 
L 45.90625 32.71875 
Q 45.90625 40.484375 42.875 44.328125 
Q 39.84375 48.1875 33.796875 48.1875 
Q 26.515625 48.1875 22.3125 43.546875 
Q 18.109375 38.921875 18.109375 30.90625 
L 18.109375 0 
L 9.078125 0 
L 9.078125 75.984375 
L 18.109375 75.984375 
L 18.109375 46.1875 
Q 21.34375 51.125 25.703125 53.5625 
Q 30.078125 56 35.796875 56 
Q 45.21875 56 50.046875 50.171875 
Q 54.890625 44.34375 54.890625 33.015625 
z
" id="DejaVuSans-104"/>
      <path d="M 9.421875 54.6875 
L 18.40625 54.6875 
L 18.40625 0 
L 9.421875 0 
z
M 9.421875 75.984375 
L 18.40625 75.984375 
L 18.40625 64.59375 
L 9.421875 64.59375 
z
" id="DejaVuSans-105"/>
      <path d="M 34.1875 63.1875 
L 20.796875 26.90625 
L 47.609375 26.90625 
z
M 28.609375 72.90625 
L 39.796875 72.90625 
L 67.578125 0 
L 57.328125 0 
L 50.6875 18.703125 
L 17.828125 18.703125 
L 11.1875 0 
L 0.78125 0 
z
" id="DejaVuSans-65"/>
      <path d="M 19.671875 64.796875 
L 19.671875 8.109375 
L 31.59375 8.109375 
Q 46.6875 8.109375 53.6875 14.9375 
Q 60.6875 21.78125 60.6875 36.53125 
Q 60.6875 51.171875 53.6875 57.984375 
Q 46.6875 64.796875 31.59375 64.796875 
z
M 9.8125 72.90625 
L 30.078125 72.90625 
Q 51.265625 72.90625 61.171875 64.09375 
Q 71.09375 55.28125 71.09375 36.53125 
Q 71.09375 17.671875 61.125 8.828125 
Q 51.171875 0 30.078125 0 
L 9.8125 0 
z
" id="DejaVuSans-68"/>
     </defs>
     <g transform="translate(525.08592 626.017827)scale(0.2 -0.2)">
      <use xlink:href="#DejaVuSans-112"/>
      <use x="63.476562" xlink:href="#DejaVuSans-104"/>
      <use x="126.855469" xlink:href="#DejaVuSans-105"/>
      <use x="154.638672" xlink:href="#DejaVuSans-65"/>
      <use x="223.046875" xlink:href="#DejaVuSans-68"/>
      <use x="300.048828" xlink:href="#DejaVuSans-68"/>
      <use x="377.050781" xlink:href="#DejaVuSans-51"/>
     </g>
    </g>
   </g>
   <g id="text_6">
    <g clip-path="url(#p02ba724421)">
     <!-- 0 -->
     <g transform="translate(717.129338 412.076288)scale(0.2 -0.2)">
      <use xlink:href="#DejaVuSans-48"/>
     </g>
    </g>
   </g>
   <g id="text_7">
    <g clip-path="url(#p02ba724421)">
     <!-- 1 -->
     <g transform="translate(717.129338 554.703981)scale(0.2 -0.2)">
      <use xlink:href="#DejaVuSans-49"/>
     </g>
    </g>
   </g>
   <g id="text_8">
    <g clip-path="url(#p02ba724421)">
     <!-- 2 -->
     <g transform="translate(717.129338 697.331673)scale(0.2 -0.2)">
      <use xlink:href="#DejaVuSans-50"/>
     </g>
    </g>
   </g>
   <g id="text_9">
    <g clip-path="url(#p02ba724421)">
     <!-- 3 -->
     <g transform="translate(717.129338 839.959365)scale(0.2 -0.2)">
      <use xlink:href="#DejaVuSans-51"/>
     </g>
    </g>
   </g>
   <g id="text_10">
    <g clip-path="url(#p02ba724421)">
     <!-- phiADD5_dg -->
     <defs>
      <path d="M 10.796875 72.90625 
L 49.515625 72.90625 
L 49.515625 64.59375 
L 19.828125 64.59375 
L 19.828125 46.734375 
Q 21.96875 47.46875 24.109375 47.828125 
Q 26.265625 48.1875 28.421875 48.1875 
Q 40.625 48.1875 47.75 41.5 
Q 54.890625 34.8125 54.890625 23.390625 
Q 54.890625 11.625 47.5625 5.09375 
Q 40.234375 -1.421875 26.90625 -1.421875 
Q 22.3125 -1.421875 17.546875 -0.640625 
Q 12.796875 0.140625 7.71875 1.703125 
L 7.71875 11.625 
Q 12.109375 9.234375 16.796875 8.0625 
Q 21.484375 6.890625 26.703125 6.890625 
Q 35.15625 6.890625 40.078125 11.328125 
Q 45.015625 15.765625 45.015625 23.390625 
Q 45.015625 31 40.078125 35.4375 
Q 35.15625 39.890625 26.703125 39.890625 
Q 22.75 39.890625 18.8125 39.015625 
Q 14.890625 38.140625 10.796875 36.28125 
z
" id="DejaVuSans-53"/>
      <path d="M 50.984375 -16.609375 
L 50.984375 -23.578125 
L -0.984375 -23.578125 
L -0.984375 -16.609375 
z
" id="DejaVuSans-95"/>
      <path d="M 45.40625 46.390625 
L 45.40625 75.984375 
L 54.390625 75.984375 
L 54.390625 0 
L 45.40625 0 
L 45.40625 8.203125 
Q 42.578125 3.328125 38.25 0.953125 
Q 33.9375 -1.421875 27.875 -1.421875 
Q 17.96875 -1.421875 11.734375 6.484375 
Q 5.515625 14.40625 5.515625 27.296875 
Q 5.515625 40.1875 11.734375 48.09375 
Q 17.96875 56 27.875 56 
Q 33.9375 56 38.25 53.625 
Q 42.578125 51.265625 45.40625 46.390625 
z
M 14.796875 27.296875 
Q 14.796875 17.390625 18.875 11.75 
Q 22.953125 6.109375 30.078125 6.109375 
Q 37.203125 6.109375 41.296875 11.75 
Q 45.40625 17.390625 45.40625 27.296875 
Q 45.40625 37.203125 41.296875 42.84375 
Q 37.203125 48.484375 30.078125 48.484375 
Q 22.953125 48.484375 18.875 42.84375 
Q 14.796875 37.203125 14.796875 27.296875 
z
" id="DejaVuSans-100"/>
      <path d="M 45.40625 27.984375 
Q 45.40625 37.75 41.375 43.109375 
Q 37.359375 48.484375 30.078125 48.484375 
Q 22.859375 48.484375 18.828125 43.109375 
Q 14.796875 37.75 14.796875 27.984375 
Q 14.796875 18.265625 18.828125 12.890625 
Q 22.859375 7.515625 30.078125 7.515625 
Q 37.359375 7.515625 41.375 12.890625 
Q 45.40625 18.265625 45.40625 27.984375 
z
M 54.390625 6.78125 
Q 54.390625 -7.171875 48.1875 -13.984375 
Q 42 -20.796875 29.203125 -20.796875 
Q 24.46875 -20.796875 20.265625 -20.09375 
Q 16.0625 -19.390625 12.109375 -17.921875 
L 12.109375 -9.1875 
Q 16.0625 -11.328125 19.921875 -12.34375 
Q 23.78125 -13.375 27.78125 -13.375 
Q 36.625 -13.375 41.015625 -8.765625 
Q 45.40625 -4.15625 45.40625 5.171875 
L 45.40625 9.625 
Q 42.625 4.78125 38.28125 2.390625 
Q 33.9375 0 27.875 0 
Q 17.828125 0 11.671875 7.65625 
Q 5.515625 15.328125 5.515625 27.984375 
Q 5.515625 40.671875 11.671875 48.328125 
Q 17.828125 56 27.875 56 
Q 33.9375 56 38.28125 53.609375 
Q 42.625 51.21875 45.40625 46.390625 
L 45.40625 54.6875 
L 54.390625 54.6875 
z
" id="DejaVuSans-103"/>
     </defs>
     <g transform="translate(863.958276 625.739702)scale(0.2 -0.2)">
      <use xlink:href="#DejaVuSans-112"/>
      <use x="63.476562" xlink:href="#DejaVuSans-104"/>
      <use x="126.855469" xlink:href="#DejaVuSans-105"/>
      <use x="154.638672" xlink:href="#DejaVuSans-65"/>
      <use x="223.046875" xlink:href="#DejaVuSans-68"/>
      <use x="300.048828" xlink:href="#DejaVuSans-68"/>
      <use x="377.050781" xlink:href="#DejaVuSans-53"/>
      <use x="440.673828" xlink:href="#DejaVuSans-95"/>
      <use x="490.673828" xlink:href="#DejaVuSans-100"/>
      <use x="554.150391" xlink:href="#DejaVuSans-103"/>
     </g>
    </g>
   </g>
   <g id="text_11">
    <g clip-path="url(#p02ba724421)">
     <!-- 0 -->
     <g transform="translate(1240.572969 412.076288)scale(0.2 -0.2)">
      <use xlink:href="#DejaVuSans-48"/>
     </g>
    </g>
   </g>
   <g id="text_12">
    <g clip-path="url(#p02ba724421)">
     <!-- 1 -->
     <g transform="translate(1240.572969 554.703981)scale(0.2 -0.2)">
      <use xlink:href="#DejaVuSans-49"/>
     </g>
    </g>
   </g>
   <g id="text_13">
    <g clip-path="url(#p02ba724421)">
     <!-- 2 -->
     <g transform="translate(1240.572969 697.331673)scale(0.2 -0.2)">
      <use xlink:href="#DejaVuSans-50"/>
     </g>
    </g>
   </g>
   <g id="text_14">
    <g clip-path="url(#p02ba724421)">
     <!-- 3 -->
     <g transform="translate(1240.572969 839.959365)scale(0.2 -0.2)">
      <use xlink:href="#DejaVuSans-51"/>
     </g>
    </g>
   </g>
   <g id="text_15">
    <g clip-path="url(#p02ba724421)">
     <!-- QFT -->
     <defs>
      <path d="M 39.40625 66.21875 
Q 28.65625 66.21875 22.328125 58.203125 
Q 16.015625 50.203125 16.015625 36.375 
Q 16.015625 22.609375 22.328125 14.59375 
Q 28.65625 6.59375 39.40625 6.59375 
Q 50.140625 6.59375 56.421875 14.59375 
Q 62.703125 22.609375 62.703125 36.375 
Q 62.703125 50.203125 56.421875 58.203125 
Q 50.140625 66.21875 39.40625 66.21875 
z
M 53.21875 1.3125 
L 66.21875 -12.890625 
L 54.296875 -12.890625 
L 43.5 -1.21875 
Q 41.890625 -1.3125 41.03125 -1.359375 
Q 40.1875 -1.421875 39.40625 -1.421875 
Q 24.03125 -1.421875 14.8125 8.859375 
Q 5.609375 19.140625 5.609375 36.375 
Q 5.609375 53.65625 14.8125 63.9375 
Q 24.03125 74.21875 39.40625 74.21875 
Q 54.734375 74.21875 63.90625 63.9375 
Q 73.09375 53.65625 73.09375 36.375 
Q 73.09375 23.6875 67.984375 14.640625 
Q 62.890625 5.609375 53.21875 1.3125 
z
" id="DejaVuSans-81"/>
      <path d="M 9.8125 72.90625 
L 51.703125 72.90625 
L 51.703125 64.59375 
L 19.671875 64.59375 
L 19.671875 43.109375 
L 48.578125 43.109375 
L 48.578125 34.8125 
L 19.671875 34.8125 
L 19.671875 0 
L 9.8125 0 
z
" id="DejaVuSans-70"/>
      <path d="M -0.296875 72.90625 
L 61.375 72.90625 
L 61.375 64.59375 
L 35.5 64.59375 
L 35.5 0 
L 25.59375 0 
L 25.59375 64.59375 
L -0.296875 64.59375 
z
" id="DejaVuSans-84"/>
     </defs>
     <g transform="translate(1262.561882 626.017827)scale(0.2 -0.2)">
      <use xlink:href="#DejaVuSans-81"/>
      <use x="78.710938" xlink:href="#DejaVuSans-70"/>
      <use x="136.214844" xlink:href="#DejaVuSans-84"/>
     </g>
    </g>
   </g>
   <g id="text_16">
    <g clip-path="url(#p02ba724421)">
     <!-- 0 -->
     <g transform="translate(1525.828354 412.076288)scale(0.2 -0.2)">
      <use xlink:href="#DejaVuSans-48"/>
     </g>
    </g>
   </g>
   <g id="text_17">
    <g clip-path="url(#p02ba724421)">
     <!-- 1 -->
     <g transform="translate(1525.828354 554.703981)scale(0.2 -0.2)">
      <use xlink:href="#DejaVuSans-49"/>
     </g>
    </g>
   </g>
   <g id="text_18">
    <g clip-path="url(#p02ba724421)">
     <!-- 2 -->
     <g transform="translate(1525.828354 697.331673)scale(0.2 -0.2)">
      <use xlink:href="#DejaVuSans-50"/>
     </g>
    </g>
   </g>
   <g id="text_19">
    <g clip-path="url(#p02ba724421)">
     <!-- 3 -->
     <g transform="translate(1525.828354 839.959365)scale(0.2 -0.2)">
      <use xlink:href="#DejaVuSans-51"/>
     </g>
    </g>
   </g>
   <g id="text_20">
    <g clip-path="url(#p02ba724421)">
     <!-- QFT -->
     <g transform="translate(1547.817266 626.017827)scale(0.2 -0.2)">
      <use xlink:href="#DejaVuSans-81"/>
      <use x="78.710938" xlink:href="#DejaVuSans-70"/>
      <use x="136.214844" xlink:href="#DejaVuSans-84"/>
     </g>
    </g>
   </g>
   <g id="text_21">
    <g clip-path="url(#p02ba724421)">
     <!-- 0 -->
     <g transform="translate(1605.878146 412.076288)scale(0.2 -0.2)">
      <use xlink:href="#DejaVuSans-48"/>
     </g>
    </g>
   </g>
   <g id="text_22">
    <g clip-path="url(#p02ba724421)">
     <!-- 1 -->
     <g transform="translate(1605.878146 554.703981)scale(0.2 -0.2)">
      <use xlink:href="#DejaVuSans-49"/>
     </g>
    </g>
   </g>
   <g id="text_23">
    <g clip-path="url(#p02ba724421)">
     <!-- 2 -->
     <g transform="translate(1605.878146 697.331673)scale(0.2 -0.2)">
      <use xlink:href="#DejaVuSans-50"/>
     </g>
    </g>
   </g>
   <g id="text_24">
    <g clip-path="url(#p02ba724421)">
     <!-- 3 -->
     <g transform="translate(1605.878146 839.959365)scale(0.2 -0.2)">
      <use xlink:href="#DejaVuSans-51"/>
     </g>
    </g>
   </g>
   <g id="text_25">
    <g clip-path="url(#p02ba724421)">
     <!-- phiADD5 -->
     <g transform="translate(1666.107459 626.017827)scale(0.2 -0.2)">
      <use xlink:href="#DejaVuSans-112"/>
      <use x="63.476562" xlink:href="#DejaVuSans-104"/>
      <use x="126.855469" xlink:href="#DejaVuSans-105"/>
      <use x="154.638672" xlink:href="#DejaVuSans-65"/>
      <use x="223.046875" xlink:href="#DejaVuSans-68"/>
      <use x="300.048828" xlink:href="#DejaVuSans-68"/>
      <use x="377.050781" xlink:href="#DejaVuSans-53"/>
     </g>
    </g>
   </g>
   <g id="text_26">
    <g clip-path="url(#p02ba724421)">
     <!-- 0 -->
     <g transform="translate(1644.209338 412.076288)scale(0.2 -0.2)">
      <use xlink:href="#DejaVuSans-48"/>
     </g>
    </g>
   </g>
   <g id="text_27">
    <g clip-path="url(#p02ba724421)">
     <!-- 1 -->
     <g transform="translate(1644.209338 554.703981)scale(0.2 -0.2)">
      <use xlink:href="#DejaVuSans-49"/>
     </g>
    </g>
   </g>
   <g id="text_28">
    <g clip-path="url(#p02ba724421)">
     <!-- 2 -->
     <g transform="translate(1644.209338 697.331673)scale(0.2 -0.2)">
      <use xlink:href="#DejaVuSans-50"/>
     </g>
    </g>
   </g>
   <g id="text_29">
    <g clip-path="url(#p02ba724421)">
     <!-- 3 -->
     <g transform="translate(1644.209338 839.959365)scale(0.2 -0.2)">
      <use xlink:href="#DejaVuSans-51"/>
     </g>
    </g>
   </g>
   <g id="text_30">
    <g clip-path="url(#p02ba724421)">
     <!-- phiADD3_dg -->
     <g transform="translate(1791.038276 625.739702)scale(0.2 -0.2)">
      <use xlink:href="#DejaVuSans-112"/>
      <use x="63.476562" xlink:href="#DejaVuSans-104"/>
      <use x="126.855469" xlink:href="#DejaVuSans-105"/>
      <use x="154.638672" xlink:href="#DejaVuSans-65"/>
      <use x="223.046875" xlink:href="#DejaVuSans-68"/>
      <use x="300.048828" xlink:href="#DejaVuSans-68"/>
      <use x="377.050781" xlink:href="#DejaVuSans-51"/>
      <use x="440.673828" xlink:href="#DejaVuSans-95"/>
      <use x="490.673828" xlink:href="#DejaVuSans-100"/>
      <use x="554.150391" xlink:href="#DejaVuSans-103"/>
     </g>
    </g>
   </g>
   <g id="text_31">
    <g clip-path="url(#p02ba724421)">
     <!-- 0 -->
     <g transform="translate(1953.711431 412.076288)scale(0.2 -0.2)">
      <use xlink:href="#DejaVuSans-48"/>
     </g>
    </g>
   </g>
   <g id="text_32">
    <g clip-path="url(#p02ba724421)">
     <!-- 1 -->
     <g transform="translate(1953.711431 554.703981)scale(0.2 -0.2)">
      <use xlink:href="#DejaVuSans-49"/>
     </g>
    </g>
   </g>
   <g id="text_33">
    <g clip-path="url(#p02ba724421)">
     <!-- 2 -->
     <g transform="translate(1953.711431 697.331673)scale(0.2 -0.2)">
      <use xlink:href="#DejaVuSans-50"/>
     </g>
    </g>
   </g>
   <g id="text_34">
    <g clip-path="url(#p02ba724421)">
     <!-- 3 -->
     <g transform="translate(1953.711431 839.959365)scale(0.2 -0.2)">
      <use xlink:href="#DejaVuSans-51"/>
     </g>
    </g>
   </g>
   <g id="text_35">
    <g clip-path="url(#p02ba724421)">
     <!-- QFT -->
     <g transform="translate(1975.700343 626.017827)scale(0.2 -0.2)">
      <use xlink:href="#DejaVuSans-81"/>
      <use x="78.710938" xlink:href="#DejaVuSans-70"/>
      <use x="136.214844" xlink:href="#DejaVuSans-84"/>
     </g>
    </g>
   </g>
   <g id="text_36">
    <g clip-path="url(#p02ba724421)">
     <!-- $X$ -->
     <defs>
      <path d="M 13.71875 72.90625 
L 23.6875 72.90625 
L 36.1875 46.578125 
L 58.796875 72.90625 
L 70.3125 72.90625 
L 40.28125 38.09375 
L 58.40625 0 
L 48.484375 0 
L 33.796875 30.71875 
L 7.171875 0 
L -4.296875 0 
L 29.78125 39.203125 
z
" id="DejaVuSans-Oblique-88"/>
     </defs>
     <g transform="translate(2131.157723 412.076288)scale(0.2 -0.2)">
      <use transform="translate(0 0.09375)" xlink:href="#DejaVuSans-Oblique-88"/>
     </g>
    </g>
   </g>
   <g id="text_37">
    <g clip-path="url(#p02ba724421)">
     <!-- $X$ -->
     <g transform="translate(2416.413108 412.076288)scale(0.2 -0.2)">
      <use transform="translate(0 0.09375)" xlink:href="#DejaVuSans-Oblique-88"/>
     </g>
    </g>
   </g>
   <g id="text_38">
    <g clip-path="url(#p02ba724421)">
     <!-- 0 -->
     <g transform="translate(2524.2222 412.076288)scale(0.2 -0.2)">
      <use xlink:href="#DejaVuSans-48"/>
     </g>
    </g>
   </g>
   <g id="text_39">
    <g clip-path="url(#p02ba724421)">
     <!-- 1 -->
     <g transform="translate(2524.2222 554.703981)scale(0.2 -0.2)">
      <use xlink:href="#DejaVuSans-49"/>
     </g>
    </g>
   </g>
   <g id="text_40">
    <g clip-path="url(#p02ba724421)">
     <!-- 2 -->
     <g transform="translate(2524.2222 697.331673)scale(0.2 -0.2)">
      <use xlink:href="#DejaVuSans-50"/>
     </g>
    </g>
   </g>
   <g id="text_41">
    <g clip-path="url(#p02ba724421)">
     <!-- 3 -->
     <g transform="translate(2524.2222 839.959365)scale(0.2 -0.2)">
      <use xlink:href="#DejaVuSans-51"/>
     </g>
    </g>
   </g>
   <g id="text_42">
    <g clip-path="url(#p02ba724421)">
     <!-- QFT -->
     <g transform="translate(2546.211112 626.017827)scale(0.2 -0.2)">
      <use xlink:href="#DejaVuSans-81"/>
      <use x="78.710938" xlink:href="#DejaVuSans-70"/>
      <use x="136.214844" xlink:href="#DejaVuSans-84"/>
     </g>
    </g>
   </g>
   <g id="text_43">
    <g clip-path="url(#p02ba724421)">
     <!-- 0 -->
     <g transform="translate(2604.271992 412.076288)scale(0.2 -0.2)">
      <use xlink:href="#DejaVuSans-48"/>
     </g>
    </g>
   </g>
   <g id="text_44">
    <g clip-path="url(#p02ba724421)">
     <!-- 1 -->
     <g transform="translate(2604.271992 554.703981)scale(0.2 -0.2)">
      <use xlink:href="#DejaVuSans-49"/>
     </g>
    </g>
   </g>
   <g id="text_45">
    <g clip-path="url(#p02ba724421)">
     <!-- 2 -->
     <g transform="translate(2604.271992 697.331673)scale(0.2 -0.2)">
      <use xlink:href="#DejaVuSans-50"/>
     </g>
    </g>
   </g>
   <g id="text_46">
    <g clip-path="url(#p02ba724421)">
     <!-- 3 -->
     <g transform="translate(2604.271992 839.959365)scale(0.2 -0.2)">
      <use xlink:href="#DejaVuSans-51"/>
     </g>
    </g>
   </g>
   <g id="text_47">
    <g clip-path="url(#p02ba724421)">
     <!-- phiADD3 -->
     <g transform="translate(2664.501305 626.017827)scale(0.2 -0.2)">
      <use xlink:href="#DejaVuSans-112"/>
      <use x="63.476562" xlink:href="#DejaVuSans-104"/>
      <use x="126.855469" xlink:href="#DejaVuSans-105"/>
      <use x="154.638672" xlink:href="#DejaVuSans-65"/>
      <use x="223.046875" xlink:href="#DejaVuSans-68"/>
      <use x="300.048828" xlink:href="#DejaVuSans-68"/>
      <use x="377.050781" xlink:href="#DejaVuSans-51"/>
     </g>
    </g>
   </g>
   <g id="text_48">
    <g clip-path="url(#p02ba724421)">
     <!-- ${ctrl}_{0}$ -->
     <defs>
      <path d="M 53.609375 52.59375 
L 51.8125 43.703125 
Q 48.578125 46.046875 44.9375 47.21875 
Q 41.3125 48.390625 37.40625 48.390625 
Q 33.109375 48.390625 29.21875 46.875 
Q 25.34375 45.359375 22.703125 42.578125 
Q 18.5 38.328125 16.203125 32.609375 
Q 13.921875 26.90625 13.921875 20.796875 
Q 13.921875 13.421875 17.609375 9.8125 
Q 21.296875 6.203125 28.8125 6.203125 
Q 32.515625 6.203125 36.6875 7.328125 
Q 40.875 8.453125 45.40625 10.6875 
L 43.703125 1.8125 
Q 39.796875 0.203125 35.671875 -0.609375 
Q 31.546875 -1.421875 27.203125 -1.421875 
Q 16.3125 -1.421875 10.453125 4.015625 
Q 4.59375 9.46875 4.59375 19.578125 
Q 4.59375 28.078125 7.640625 35.234375 
Q 10.6875 42.390625 16.703125 48.09375 
Q 20.796875 52 26.3125 54 
Q 31.84375 56 38.375 56 
Q 42.1875 56 45.9375 55.140625 
Q 49.703125 54.296875 53.609375 52.59375 
z
" id="DejaVuSans-Oblique-99"/>
      <path d="M 42.28125 54.6875 
L 40.921875 47.703125 
L 23 47.703125 
L 17.1875 18.015625 
Q 16.890625 16.359375 16.75 15.234375 
Q 16.609375 14.109375 16.609375 13.484375 
Q 16.609375 10.359375 18.484375 8.9375 
Q 20.359375 7.515625 24.515625 7.515625 
L 33.59375 7.515625 
L 32.078125 0 
L 23.484375 0 
Q 15.484375 0 11.546875 3.125 
Q 7.625 6.25 7.625 12.59375 
Q 7.625 13.71875 7.765625 15.0625 
Q 7.90625 16.40625 8.203125 18.015625 
L 14.015625 47.703125 
L 6.390625 47.703125 
L 7.8125 54.6875 
L 15.28125 54.6875 
L 18.3125 70.21875 
L 27.296875 70.21875 
L 24.3125 54.6875 
z
" id="DejaVuSans-Oblique-116"/>
      <path d="M 44.578125 46.390625 
Q 43.21875 47.125 41.453125 47.515625 
Q 39.703125 47.90625 37.703125 47.90625 
Q 30.515625 47.90625 25.140625 42.453125 
Q 19.78125 37.015625 18.015625 27.875 
L 12.5 0 
L 3.515625 0 
L 14.203125 54.6875 
L 23.1875 54.6875 
L 21.484375 46.1875 
Q 25.046875 50.921875 30 53.453125 
Q 34.96875 56 40.578125 56 
Q 42.046875 56 43.453125 55.828125 
Q 44.875 55.671875 46.296875 55.28125 
z
" id="DejaVuSans-Oblique-114"/>
      <path d="M 18.3125 75.984375 
L 27.296875 75.984375 
L 12.5 0 
L 3.515625 0 
z
" id="DejaVuSans-Oblique-108"/>
     </defs>
     <g transform="translate(345.249877 128.200591)scale(0.25 -0.25)">
      <use transform="translate(0 0.015625)" xlink:href="#DejaVuSans-Oblique-99"/>
      <use transform="translate(54.980469 0.015625)" xlink:href="#DejaVuSans-Oblique-116"/>
      <use transform="translate(94.189453 0.015625)" xlink:href="#DejaVuSans-Oblique-114"/>
      <use transform="translate(135.302734 0.015625)" xlink:href="#DejaVuSans-Oblique-108"/>
      <use transform="translate(163.085938 -16.390625)scale(0.7)" xlink:href="#DejaVuSans-48"/>
     </g>
    </g>
   </g>
   <g id="text_49">
    <g clip-path="url(#p02ba724421)">
     <!-- ${ctrl}_{1}$ -->
     <g transform="translate(345.249877 270.828284)scale(0.25 -0.25)">
      <use transform="translate(0 0.015625)" xlink:href="#DejaVuSans-Oblique-99"/>
      <use transform="translate(54.980469 0.015625)" xlink:href="#DejaVuSans-Oblique-116"/>
      <use transform="translate(94.189453 0.015625)" xlink:href="#DejaVuSans-Oblique-114"/>
      <use transform="translate(135.302734 0.015625)" xlink:href="#DejaVuSans-Oblique-108"/>
      <use transform="translate(163.085938 -16.390625)scale(0.7)" xlink:href="#DejaVuSans-49"/>
     </g>
    </g>
   </g>
   <g id="text_50">
    <g clip-path="url(#p02ba724421)">
     <!-- ${phi}_{0}$ -->
     <defs>
      <path d="M 49.609375 33.6875 
Q 49.609375 40.875 46.484375 44.671875 
Q 43.359375 48.484375 37.5 48.484375 
Q 33.5 48.484375 29.859375 46.4375 
Q 26.21875 44.390625 23.390625 40.484375 
Q 20.609375 36.625 18.9375 31.15625 
Q 17.28125 25.6875 17.28125 20.3125 
Q 17.28125 13.484375 20.40625 9.796875 
Q 23.53125 6.109375 29.296875 6.109375 
Q 33.546875 6.109375 37.1875 8.109375 
Q 40.828125 10.109375 43.40625 13.921875 
Q 46.1875 17.921875 47.890625 23.34375 
Q 49.609375 28.765625 49.609375 33.6875 
z
M 21.78125 46.390625 
Q 25.390625 51.125 30.296875 53.5625 
Q 35.203125 56 41.21875 56 
Q 49.609375 56 54.25 50.5 
Q 58.890625 45.015625 58.890625 35.109375 
Q 58.890625 27 56 19.65625 
Q 53.125 12.3125 47.703125 6.5 
Q 44.09375 2.640625 39.546875 0.609375 
Q 35.015625 -1.421875 29.984375 -1.421875 
Q 24.171875 -1.421875 20.21875 1 
Q 16.265625 3.421875 14.3125 8.203125 
L 8.6875 -20.796875 
L -0.296875 -20.796875 
L 14.40625 54.6875 
L 23.390625 54.6875 
z
" id="DejaVuSans-Oblique-112"/>
      <path d="M 55.71875 33.015625 
L 49.3125 0 
L 40.28125 0 
L 46.6875 32.671875 
Q 47.125 34.96875 47.359375 36.71875 
Q 47.609375 38.484375 47.609375 39.5 
Q 47.609375 43.609375 45.015625 45.890625 
Q 42.4375 48.1875 37.796875 48.1875 
Q 30.5625 48.1875 25.265625 43.296875 
Q 19.96875 38.421875 18.40625 30.328125 
L 12.5 0 
L 3.515625 0 
L 18.3125 75.984375 
L 27.296875 75.984375 
L 21.484375 46.09375 
Q 24.90625 50.6875 30.21875 53.34375 
Q 35.546875 56 41.40625 56 
Q 48.640625 56 52.609375 52.09375 
Q 56.59375 48.1875 56.59375 41.109375 
Q 56.59375 39.359375 56.375 37.359375 
Q 56.15625 35.359375 55.71875 33.015625 
z
" id="DejaVuSans-Oblique-104"/>
      <path d="M 18.3125 75.984375 
L 27.296875 75.984375 
L 25.09375 64.59375 
L 16.109375 64.59375 
z
M 14.203125 54.6875 
L 23.1875 54.6875 
L 12.5 0 
L 3.515625 0 
z
" id="DejaVuSans-Oblique-105"/>
     </defs>
     <g transform="translate(347.499877 413.432538)scale(0.25 -0.25)">
      <use transform="translate(0 0.015625)" xlink:href="#DejaVuSans-Oblique-112"/>
      <use transform="translate(63.476562 0.015625)" xlink:href="#DejaVuSans-Oblique-104"/>
      <use transform="translate(126.855469 0.015625)" xlink:href="#DejaVuSans-Oblique-105"/>
      <use transform="translate(154.638672 -16.390625)scale(0.7)" xlink:href="#DejaVuSans-48"/>
     </g>
    </g>
   </g>
   <g id="text_51">
    <g clip-path="url(#p02ba724421)">
     <!-- ${phi}_{1}$ -->
     <g transform="translate(347.499877 556.060231)scale(0.25 -0.25)">
      <use transform="translate(0 0.015625)" xlink:href="#DejaVuSans-Oblique-112"/>
      <use transform="translate(63.476562 0.015625)" xlink:href="#DejaVuSans-Oblique-104"/>
      <use transform="translate(126.855469 0.015625)" xlink:href="#DejaVuSans-Oblique-105"/>
      <use transform="translate(154.638672 -16.390625)scale(0.7)" xlink:href="#DejaVuSans-49"/>
     </g>
    </g>
   </g>
   <g id="text_52">
    <g clip-path="url(#p02ba724421)">
     <!-- ${phi}_{2}$ -->
     <g transform="translate(347.499877 698.687923)scale(0.25 -0.25)">
      <use transform="translate(0 0.015625)" xlink:href="#DejaVuSans-Oblique-112"/>
      <use transform="translate(63.476562 0.015625)" xlink:href="#DejaVuSans-Oblique-104"/>
      <use transform="translate(126.855469 0.015625)" xlink:href="#DejaVuSans-Oblique-105"/>
      <use transform="translate(154.638672 -16.390625)scale(0.7)" xlink:href="#DejaVuSans-50"/>
     </g>
    </g>
   </g>
   <g id="text_53">
    <g clip-path="url(#p02ba724421)">
     <!-- ${phi}_{3}$ -->
     <g transform="translate(347.499877 841.315615)scale(0.25 -0.25)">
      <use transform="translate(0 0.015625)" xlink:href="#DejaVuSans-Oblique-112"/>
      <use transform="translate(63.476562 0.015625)" xlink:href="#DejaVuSans-Oblique-104"/>
      <use transform="translate(126.855469 0.015625)" xlink:href="#DejaVuSans-Oblique-105"/>
      <use transform="translate(154.638672 -16.390625)scale(0.7)" xlink:href="#DejaVuSans-51"/>
     </g>
    </g>
   </g>
   <g id="text_54">
    <g clip-path="url(#p02ba724421)">
     <!-- ${ancilla}_{0}$ -->
     <defs>
      <path d="M 53.71875 31.203125 
L 47.609375 0 
L 38.625 0 
L 40.28125 8.296875 
Q 36.328125 3.421875 31.265625 1 
Q 26.21875 -1.421875 20.015625 -1.421875 
Q 13.03125 -1.421875 8.5625 2.84375 
Q 4.109375 7.125 4.109375 13.8125 
Q 4.109375 23.390625 11.75 28.953125 
Q 19.390625 34.515625 32.8125 34.515625 
L 45.3125 34.515625 
L 45.796875 36.921875 
Q 45.90625 37.3125 45.953125 37.765625 
Q 46 38.234375 46 39.203125 
Q 46 43.5625 42.453125 45.96875 
Q 38.921875 48.390625 32.515625 48.390625 
Q 28.125 48.390625 23.5 47.265625 
Q 18.890625 46.140625 14.015625 43.890625 
L 15.578125 52.203125 
Q 20.65625 54.109375 25.515625 55.046875 
Q 30.375 56 34.90625 56 
Q 44.578125 56 49.625 51.796875 
Q 54.6875 47.609375 54.6875 39.59375 
Q 54.6875 37.984375 54.4375 35.8125 
Q 54.203125 33.640625 53.71875 31.203125 
z
M 44 27.484375 
L 35.015625 27.484375 
Q 23.96875 27.484375 18.671875 24.53125 
Q 13.375 21.578125 13.375 15.375 
Q 13.375 11.078125 16.078125 8.640625 
Q 18.796875 6.203125 23.578125 6.203125 
Q 30.90625 6.203125 36.375 11.453125 
Q 41.84375 16.703125 43.609375 25.484375 
z
" id="DejaVuSans-Oblique-97"/>
      <path d="M 55.71875 33.015625 
L 49.3125 0 
L 40.28125 0 
L 46.6875 32.671875 
Q 47.125 34.96875 47.359375 36.71875 
Q 47.609375 38.484375 47.609375 39.5 
Q 47.609375 43.609375 45.015625 45.890625 
Q 42.4375 48.1875 37.796875 48.1875 
Q 30.5625 48.1875 25.34375 43.375 
Q 20.125 38.578125 18.5 30.328125 
L 12.5 0 
L 3.515625 0 
L 14.109375 54.6875 
L 23.09375 54.6875 
L 21.296875 46.09375 
Q 25.046875 50.828125 30.3125 53.40625 
Q 35.59375 56 41.40625 56 
Q 48.640625 56 52.609375 52.09375 
Q 56.59375 48.1875 56.59375 41.109375 
Q 56.59375 39.359375 56.375 37.359375 
Q 56.15625 35.359375 55.71875 33.015625 
z
" id="DejaVuSans-Oblique-110"/>
     </defs>
     <g transform="translate(304.999877 983.966745)scale(0.25 -0.25)">
      <use transform="translate(0 0.015625)" xlink:href="#DejaVuSans-Oblique-97"/>
      <use transform="translate(61.279297 0.015625)" xlink:href="#DejaVuSans-Oblique-110"/>
      <use transform="translate(124.658203 0.015625)" xlink:href="#DejaVuSans-Oblique-99"/>
      <use transform="translate(179.638672 0.015625)" xlink:href="#DejaVuSans-Oblique-105"/>
      <use transform="translate(207.421875 0.015625)" xlink:href="#DejaVuSans-Oblique-108"/>
      <use transform="translate(235.205078 0.015625)" xlink:href="#DejaVuSans-Oblique-108"/>
      <use transform="translate(262.988281 0.015625)" xlink:href="#DejaVuSans-Oblique-97"/>
      <use transform="translate(324.267578 -16.390625)scale(0.7)" xlink:href="#DejaVuSans-48"/>
     </g>
    </g>
   </g>
  </g>
 </g>
 <defs>
  <clipPath id="p02ba724421">
   <rect height="1055.444923" width="2858.258954" x="7.2" y="7.2"/>
  </clipPath>
 </defs>
</svg>
